<svg width="282" height="50" viewBox="0 0 282 50" xmlns="http://www.w3.org/2000/svg"><title>Logo (Horizontal)</title><g fill="#231F20" fill-rule="evenodd"><path d="M15.09 19.24a1.857 1.857 0 0 0-.274-.346h.313c1.084 0 2.186.011 3.29.027.383.005.765.009 1.147.016l.267.004c.611 0 1.22-.042 1.811-.081.25-.019.5-.035.75-.048.474-.03.93.035 1.42.099.395.054.806.109 1.223.112l.41.001c.981 0 1.964-.021 2.95-.044.857-.02 1.714-.039 2.57-.044.262-.002.524-.007.786-.013a87.776 87.776 0 0 0 2.34-.103 99.492 99.492 0 0 1 2.23-.099l-.43.748a5.038 5.038 0 0 0-.183.23c-.323.426-.559.912-.79 1.383-.073.152-.147.304-.22.444l-.424.735c-.21.33-.442.649-.669.967-.51.713-1.039 1.449-1.369 2.303-.512-.003-1.039-.046-1.547-.087-.474-.038-.967-.078-1.455-.087l-.253-.003c-.548 0-1.126.037-1.772.113a2.327 2.327 0 0 1-.25.014c-.249 0-.502-.037-.769-.076a10.035 10.035 0 0 0-.472-.063 7.063 7.063 0 0 0-.597-.031c-.596-.004-1.182.06-1.752.125-.396.041-.792.086-1.19.107-.835.044-1.678.01-2.516-.025-.358-.012-.71-.028-1.07-.035-.3-.518-.63-1.028-.945-1.522l-1.55-2.667a43.601 43.601 0 0 1-.228-.501c-.23-.512-.47-1.043-.782-1.553m15.235 9.86l-.783 1.361c-.194.314-.39.625-.59.937a57.05 57.05 0 0 0-.92 1.484c-.762 1.295-1.509 2.625-2.232 3.912l-.318.568c-.204-.446-.47-.854-.727-1.254a28.67 28.67 0 0 1-1.875-3.398c-.374-.801-.86-1.535-1.33-2.245l-.41-.628a17.724 17.724 0 0 1-.34-.56 13.127 13.127 0 0 0-.464-.749 1.342 1.342 0 0 0-.178-.219 8.54 8.54 0 0 0 .801-.029c.862-.059 1.638-.11 2.434-.137.321-.011.642-.017.965-.019.966-.009 1.933.015 2.9.039.705.015 1.411.032 2.16.036.38 0 .738-.04 1.034-.045.102.009.231-.023.332 0-.127.288-.293.635-.459.946m10.528-3.525v.004h-.026a.049.049 0 0 0-.007-.003l.033-.001M9.687 26.606a3.16 3.16 0 0 0-.012.695 1.24 1.24 0 0 0-.025.183c-.022.313-.038.622.344.651.184.013.364 0 .538-.027.05.004.094.013.15.013.137 0 .275-.012.39-.022l.11-.008.084-.004c.358.022.715.049 1.074.056.4.009.795-.025 1.192-.06.507.059 1.026.027 1.546.031.61.004 1.217.04 1.827.045.097 0 .195-.004.294-.008.8 1.349 1.595 2.702 2.388 4.055a1511.12 1511.12 0 0 0 2.006 3.406c.81 1.373 1.43 2.552 1.947 3.708l.11.245c.292.667.647 1.46 1.224 1.954.13.226.257.457.417.663.078.101.206.107.282 0 .09-.125.176-.254.262-.386a.381.381 0 0 0 .161-.259l.002-.006c.42-.691.778-1.44 1.096-2.189l.016-.02c.24-.342.487-.696.685-1.061.342-.625.691-1.242 1.041-1.859.37-.65.74-1.301 1.096-1.959.338-.624.721-1.24 1.092-1.836.361-.58.733-1.18 1.068-1.793.225-.407.487-.802.743-1.183.325-.488.66-.993.924-1.539.628.015 1.255.045 1.885.045.276.001.896.035 1.362-.046.113.001.225.004.336.004l.25-.001c.437-.002.877-.041 1.3-.076.194-.016.395-.032.594-.046.57.037 1.156.127 1.702.044.066-.011.127-.093.121-.158-.07-.815-.053-1.636-.145-2.449-.01-.089-.066-.161-.16-.163a8.788 8.788 0 0 0-1.308.1h-.273c-.452 0-.905.021-1.36.045-.404.018-.809.039-1.212.043-.38.003-.769.038-1.145.072-.162.015-.323.03-.487.043.157-.301.334-.596.505-.883.213-.358.43-.725.618-1.106.466-.946.95-1.74 1.48-2.425.488-.637.781-1.261 1.09-1.919l.18-.383c.131-.273.29-.524.454-.79.174-.277.351-.56.497-.868.011-.012.024-.024.033-.038.162-.196.284-.419.435-.625.078-.106-.03-.236-.143-.244-.245-.019-.527-.039-.79 0a17.648 17.648 0 0 0-1.502-.049c-.503-.001-1.023-.002-1.527-.052a8.356 8.356 0 0 0-1.704.004c-.078.008-.152.023-.229.036h-.002c-.87.088-1.746.056-2.622.081a6.154 6.154 0 0 0-.327-.035c-.39-.027-.79-.018-1.184-.014-.17.003-.34.006-.508.006-1.16 0-2.47 0-3.768-.03a118.99 118.99 0 0 0-1.885-.027c-1.88-.012-3.747.021-5.518.103-.564.028-1.123.054-1.675.077h-4.86a26.603 26.603 0 0 1-1.073-.083 1.961 1.961 0 0 0-.558-.011c-.082.01-.143.125-.113.2.121.323.343.582.508.879.176.477.511.886.792 1.313.464.705.838 1.465 1.25 2.201.44.789.892 1.586 1.436 2.309l.053.07 1.246 2.156c-.262.016-.52.044-.775.07-.372.039-.757.08-1.186.08h-.006c-.328-.004-.65-.015-.973-.024a42.61 42.61 0 0 0-.799-.022c-.373-.051-.764-.034-1.14-.02a.124.124 0 0 0-.086-.015c-.234.031-.986-.137-1.123.156a1.095 1.095 0 0 0-.088.622l.055.357M209.465 38.63c-.006-.014-.01-.032-.014-.048.01.006.018.012.03.018-.014.008-.022.017-.016.03zm-6.379-9.747c-.53-.073-1.05-.143-1.509-.151-.637-.01-1.27.025-1.903.097-.561.06-1.143-.063-1.72-.14l.354-.837c.113-.162.227-.326.328-.5.443-.76.673-1.675.981-2.494.393-1.054.908-2.025 1.396-3.033.251-.52.424-1.062.706-1.558l.485 1.14c.597 2.629 2.348 4.852 3.034 7.476h-2.152zm11.175 9.658c0-.119-.089-.25-.195-.375-.41-.897-.832-1.791-1.262-2.682l-5.286-11.65c-.473-1.196-1.03-2.36-1.595-3.52l-1.975-4.354c-.49-1.215-.97-2.42-1.617-3.56l-.177-.393c-.087-.264-.257-.48-.38-.738-.047-.097-.211-.099-.257 0-.11.23-.21.462-.283.708l-.013.056c-.616.74-.73 1.7-1.185 2.596-.694 1.361-1.354 2.686-1.937 4.101-1.221 2.963-2.833 5.744-3.908 8.76l-.492 1.082c-.338.58-.562 1.194-.839 1.825-.363.828-.827 1.608-1.173 2.447a40.123 40.123 0 0 1-1.34 2.905 6.63 6.63 0 0 0-.277.653 7.044 7.044 0 0 0-.167.23c-.212.326-.387.682-.56 1.03-.146.286-.337.537-.424.846-.12.08-.04.305.126.263l.007-.001c.034.01.072.005.103-.013.372.045.86.006 1.214-.019.267-.018.536-.023.803-.024a13.39 13.39 0 0 1 1.182.05c.155.012.86.112 1.267 0a.23.23 0 0 0 .137-.054c.096-.05.153-.124.153-.227.367-.668.55-1.417.913-2.094.418-.781.725-1.659 1.043-2.482a5.6 5.6 0 0 0 .262-.832l.263-.623h.502c1.605.194 3.23.067 4.86.03 1.07-.021 2.146.063 3.215-.011.058-.003.118-.01.18-.02h1.535c.096.06.184.135.26.224l1 2.357c.253.993.446 2.044.936 2.892.011.074.026.15.04.219.042.183.099.735.375.732.011 0 .02-.004.031-.007.076.025.168.018.248.015.3-.012.601-.027.9-.047.356.016.742-.01 1.132-.05.833.034 1.702-.033 2.505-.096.08-.006.15-.063.15-.15zM86.776 34.49c.02-.153-.143-.284-.285-.284-3.058.008-6.186-.042-9.236.198h-.002a2.767 2.767 0 0 0-.478-.064c-.478-.012-.94-.068-1.416-.053-.048-.242-.107-.483-.146-.713-.043-.25-.07-.498-.097-.746 0-.587-.001-1.173-.01-1.758-.032-1.92-.118-3.816-.04-5.735.134-3.18.082-6.38.059-9.571.02-.32.037-.644.035-.98-.003-.447.04-.895.051-1.34.013-.457-.098-.912-.027-1.367.016-.096-.039-.186-.144-.189-.383-.009-.765 0-1.148.013a3.824 3.824 0 0 0-.366.016c-.88.041-1.759.104-2.64.096-.025-.008-.05-.014-.075-.023a.222.222 0 0 0-.227.02.323.323 0 0 0-.181.253c0 .004 0 .006-.002.007a.16.16 0 0 0-.007.097c-.086.924.039 1.832.073 2.757.039.994-.041 2.01-.03 3.007.028 2.35-.022 4.692.046 7.046.012.365.019.732.026 1.1v3.972c-.009.366-.018.73-.032 1.095-.037.84-.09 1.653-.065 2.487-.05.314-.037.636-.03.952.024 1.064.008 2.133.033 3.195-.016.081-.03.162-.05.243a.298.298 0 0 0 .021.202c-.022.055-.046.106-.05.122-.03.086.049.198.143.188.436-.045.875-.042 1.313-.057.741.071 1.504-.004 2.238-.066 1.432-.122 2.86-.096 4.295-.045 1.322.045 2.636.005 3.958-.024 1.423-.03 2.831.247 4.255.138.145-.009.296-.12.284-.285-.098-1.308-.199-2.594-.046-3.904m18.658 4.141a.306.306 0 0 0 .221-.117h.031v-.042a.298.298 0 0 0 .035-.125c.096-4.52.194-9.086.002-13.605l-.037-.916V18.98c.012-.172.021-.344.037-.517.087-.981.053-1.965.035-2.95-.017-1.115.194-2.241.104-3.343-.013-.16-.121-.281-.286-.287-1.43-.046-2.856-.075-4.284 0a.282.282 0 0 0-.232.433.257.257 0 0 0 .005.169c.073.186.104.404.111.63v.365c-.015.366-.06.738-.07 1.047-.025.902.022 1.795.07 2.696v2.347c-.025.519-.058 1.035-.07 1.55-.02.802.032 1.6.07 2.402v2.555c-.074 1.582-.217 3.17 0 4.732v5.64c-.16.633-.278 1.265-.264 1.946a.288.288 0 0 0 .286.285c.624 0 1.228-.107 1.845-.165h.915c.488.058.966.167 1.476.117m20.87.063c.226.013.449.022.682-.005.073-.01.154-.06.146-.149-.06-.816.043-1.838-.157-2.687v-7.662c.114-.37.055-.91.057-1.285.005-.827.095-1.655.175-2.479.065-.671-.023-1.332-.047-2-.004-.12.036-.284.073-.456.291.277.595.543.852.845.747.87 1.622 1.607 2.372 2.475 1.466 1.698 3.125 3.186 4.568 4.917 1.248 1.497 2.637 3.168 4.193 4.35.1.074.191.154.277.23.23.302.486.581.749.862.3.416.567.852.933 1.277.229.272.527.47.836.655.338.327.673.658.936 1.087.028.046.058.08.089.12.033.06.063.109.088.14.155.182.547.445.804.445.087 0 .139-.07.147-.15.048-.403.022-.833.005-1.238-.012-.309.006-.644-.04-.953v-2.946c.072-.681.122-1.368.106-2.07-.05-2.354.073-4.714-.03-7.068-.164-3.87.33-7.786.108-11.66.067-.452-.05-.965.032-1.405.02-.099-.042-.183-.144-.189-.609-.034-1.206 0-1.81.054-.762.066-1.527-.03-2.29.004-.69.03-.744.224-.696.698a1.06 1.06 0 0 0 .002.42c.088.473.16.924.21 1.37v2.327c-.106 1.076-.092 2.1-.013 3.186.008.117.01.233.013.349v.376c-.017.859-.145 1.702-.157 2.567-.007.684.085 1.364.154 2.043-.058.483-.128.962-.12 1.452.007.393-.043.794-.081 1.184-.016.152.011.392.009.606-.011.066-.025.131-.037.196l-1.768-1.861a23.41 23.41 0 0 0-1.154-1.384c-1.75-1.936-3.636-3.745-5.41-5.66-1.729-1.866-3.322-3.78-5.198-5.514-.78-.722-1.286-1.938-2.27-2.39a11.077 11.077 0 0 0-.378-.243c-.19-.12-.37-.264-.577-.357a.12.12 0 0 0-.052-.025l-.009-.005v.002c-.01-.002-.018-.007-.028-.007h-.011c-.007 0-.013.003-.018.003-.077-.007-.131.046-.148.111-.04.031-.063.082-.04.148.062.177.014.392.021.579.004.06.012.12.021.183a3.463 3.463 0 0 0-.004.138c-.003.038-.007.073-.007.1-.015.599.035 1.194.017 1.794-.017.545-.015 1.093.014 1.641-.013.191-.04.389-.035.564.01.337.063.678.079 1.015.007.119.014.237.023.355-.01.122-.021.242-.033.364-.245 2.226.007 4.507.028 6.742.04 4.194-.258 8.447-.073 12.64a.144.144 0 0 0 .006.125c.011.27.019.54.037.81 0 .021.005.045.012.068-.007.05-.012.098-.012.139-.002.095.096.173.188.143.553-.173 1.403-.11 1.969-.046.17.018.34.015.508.007.475.048.93.07 1.308-.012m49.28-15.589v.002h-.002l-.002-.002h.004m-3.029 15.495c.377-.02.744-.055 1.11-.087h.147c.385.012.773.035 1.156.044.595.014 1.236.142 1.822.059.046-.008.094-.059.103-.105.053-.247.06-.508.059-.773.046-.5.053-1.002.022-1.502.002-.64-.06-1.281-.076-1.923a.15.15 0 0 0-.15-.15 4.36 4.36 0 0 0-.517.043c-.204-.022-.45.013-.736.045a26.89 26.89 0 0 1-2.276.152h-3.34a43.51 43.51 0 0 1-2.124-.109c-.814-.058-1.78.035-2.609-.126v-2.22c.04-.452.082-.905.116-1.36.043-.636-.038-1.274-.096-1.903-.052-.59.014-1.078.116-1.607h1.157c.251.046.499.087.754.101.866.055 1.729-.04 2.594-.074.307-.012.619-.02.928-.027h3.705c.394.01.783.02 1.17.034a.215.215 0 0 0 .117-.024c.096-.002.193-.009.292-.017.09-.009.173-.089.142-.188-.169-.534-.088-1.17-.092-1.75.03-.529.009-1.051-.14-1.475a5.423 5.423 0 0 1-.031-.691c.002-.085-.07-.145-.148-.148-.45-.024-.874-.101-1.31-.092-1.358-.025-2.757.316-4.125.315-1.672-.003-3.344-.044-5.019-.061-.002-.136.021-.273.002-.409l-.017-.088c.055-.405-.007-.868-.037-1.172-.024-.222-.05-.453-.078-.688v-4.378c.252.024.575.059.854.046.904.24 2.034.108 2.78.047.494-.04.983-.102 1.476-.159h3.866c.651.056 1.304.108 1.959.122.003 0 .007.004.014.004.246.027.483-.019.728-.011.109.003.157-.097.145-.189-.085-.628-.104-1.26-.17-1.892v-.001c.04-.468.116-1.025.072-1.492.023-.256.039-.51.028-.759a.15.15 0 0 0-.15-.148 4.454 4.454 0 0 0-.412.019 1.156 1.156 0 0 0-.152-.04c-1.08-.176-2.385.144-3.478.19-1.376.06-2.756.035-4.135.055-2.322.04-4.72-.295-7.041-.066a3.013 3.013 0 0 1-.207-.016c-.264-.037-.504-.049-.757.032-.062.02-.112.076-.11.143.005.173-.017.33.009.5v.002l.005.04c.004.02.012.039.023.053.078.236.095.485.117.733l.025.218v3.059c-.043.584-.09 1.17-.123 1.754-.106 2.11.01 4.251-.004 6.364-.024 3.744-.11 7.493-.084 11.24a.128.128 0 0 0 0 .096v.003c.007.75.014 1.499.032 2.247 0 .037.009.075.022.11l-.004.126a.15.15 0 0 0 .188.144c1.294-.385 2.745-.081 4.078-.307h3.037c.3.008.601.012.904.012 1.294-.002 2.583.155 3.874.075m107.028-15.495v.002h-.018l.018-.002m1.622 13.319c.018-.184.04-.369.043-.552.01-.501-.146-1.012-.07-1.51.015-.095-.039-.186-.143-.188a4.275 4.275 0 0 0-.463.017.585.585 0 0 0-.202-.02c-.648.043-1.318.139-1.987.232h-5.324c-1.262-.13-2.517-.246-3.785-.169V27.08h1.964c.127.028.254.055.384.072.89.118 1.74.033 2.617-.072h4.094c.334.02.67.03 1.01.032.15.023.3.033.436.029.101-.004.162-.092.143-.188a.534.534 0 0 1-.01-.089c.003-.016.002-.034.002-.052.001-.077.007-.155 0-.226a1.754 1.754 0 0 0-.038-.207c-.01-.59.082-1.517-.012-2.278.016-.374-.034-.758.034-1.129.021-.117-.068-.206-.183-.184-.21.04-.42.007-.63.035-.031.003-.062.009-.093.014a1.14 1.14 0 0 0-.341.007c-2.119.355-4.288-.06-6.39.265h-2.987v-.516c.04-.46.03-.9 0-1.36v-5.051h9.128c.513.097 1.224.254 1.79.155h.098c.205-.003.504-.083.693-.009.065.026.117.002.147-.04a.122.122 0 0 0 .054-.116 16.02 16.02 0 0 1-.034-.93 4.26 4.26 0 0 0 .002-.882c.012-.845.034-1.688-.043-2.533-.007-.074-.062-.157-.149-.148-.631.062-1.33-.054-1.964.065a.263.263 0 0 0-.076-.002c-1.348.142-2.623.304-3.938.327h-.473a13.833 13.833 0 0 1-1.038-.043c-1.64-.128-3.29.004-4.937.043h-1.175c-.337-.036-.997-.165-1.574-.18-.305-.12-.71-.062-1.005-.025-.083.011-.142.06-.15.15a9.47 9.47 0 0 0-.003.754c-.014.173-.004.349.02.526l.01.246c.005.317-.01.619.052.922a7.02 7.02 0 0 0-.112.99c-.08 1.436.043 2.893.168 4.326v2.278c-.056.799-.132 1.6-.107 2.397.012.478.062.953.107 1.428v2.17c-.064.516-.152 1.036-.207 1.542-.175 1.606.14 3.201.18 4.804.03 1.243-.35 2.608-.063 3.844-.003.159-.003.318.006.475a.162.162 0 0 0 .033.084c.019.077.105.133.18.108.07-.021.144-.036.216-.049a.968.968 0 0 0 .419-.053c.529-.027 1.086.041 1.594-.068.263-.009.524-.022.783-.045.912-.08 1.85-.06 2.764-.178h3.18c1.011.154 2.02.222 2.932.038.059-.011.116-.024.17-.036.517.058 1.033.043 1.557.041.383 0 .762.023 1.14.043.024.003.046.009.069.012.13.01.244.013.351.007.32.01.64.012.966-.016.08-.007.15-.062.15-.149 0-.408 0-.819-.003-1.228a4.61 4.61 0 0 0 .023-.801m-30.726-12.231c-.566.108-1.096-.12-1.634.11-.284.015-.567-.022-.853-.015l-.04.002a3.99 3.99 0 0 0-.968.036c-.424.057-.846.13-1.271.188h-2.026c-.358-.08-.665-.006-1.016-.05-.445-.06-1.013-.075-1.44.016-.065.014-.131.024-.197.034h-2.265a8.84 8.84 0 0 1-.323-.057.32.32 0 0 0-.166.014l-.044-.014c-.097-.03-.186.05-.19.142-.037.915.078 1.897.166 2.808.044.447-.129.901.078 1.316.027.054.11.09.167.069.318-.125.647-.124.97-.177.502-.042 1.007-.086 1.508-.132h3.695v1.793c-.088.307-.173.588-.191.784-.094.976.144 1.82-.023 2.736-1.482.783-2.956 1.144-5.125 1.144-.396 0-.788-.025-1.171-.07-1.97-.462-4.03-1.437-5.64-2.803-1.595-1.693-2.57-4.035-2.57-6.757 0-1.181.172-2.309.503-3.35.22-.542.467-1.057.732-1.535.538-.967 1.321-1.752 2.127-2.492.693-.64 1.426-1.06 2.207-1.467 1.125-.44 2.412-.684 3.847-.684.473 0 .95.033 1.424.092 1.859.427 3.707 1.421 5.09 2.304.348.29.669.289.932-.275.208-.444.465-.862.703-1.292.305-.469.607-.977.761-1.442a3.4 3.4 0 0 1 .407-.53c.07-.07.051-.18-.03-.232-.125-.08-.254-.16-.388-.239a.77.77 0 0 0-.19-.219c-1.943-1.487-4.905-2.024-7.27-2.359-4.25-.6-8.582.99-11.734 3.833-3.215 2.897-4.697 7.101-4.214 11.36.23 2.033.945 3.992 2.026 5.722.516.829 1.086 1.478 1.74 1.992.094.103.188.203.288.302 1.357 1.938 3.9 3.066 6.006 3.79 3.156 1.084 6.712.306 9.855-.321 1.27-.254 2.571-.733 3.313-1.646a.935.935 0 0 0 .072-.042c.144-.054.267-.13.371-.22.158-.098.316-.196.473-.3v-.539c.094-.361.118-.77.107-1.177-.05-1.909-.02-3.809-.002-5.714.643.079 1.638.137 1.694-.348.065-.579.094-1.17.152-1.752.069-.715-.104-1.408-.149-2.12-.009-.153-.135-.244-.284-.217"/><path d="M4.965 17.119c.324-.635.593-1.309.886-1.918.178-.373.354-.746.543-1.112.207-.362.422-.716.645-1.063.104-.132.205-.264.27-.415a22.001 22.001 0 0 1 4.302-4.701c.333-.241.665-.483 1.005-.698.887-.555 1.712-1.166 2.64-1.656A22.731 22.731 0 0 1 21.19 3.42c1.066-.219 2.181-.288 3.26-.42.03-.004.06-.005.088-.007.305-.013.61-.024.915-.024 7.048 0 13.325 3.349 17.337 8.535.15.339.411.643.59.964.268.478.612.891.952 1.308.132.225.265.449.39.679.285.891.722 1.754 1.185 2.582a21.772 21.772 0 0 1 1.018 3.46c.007.146.023.293.026.438.015.584.137 1.153.301 1.71.074.736.113 1.482.113 2.236l-.002.102c-.017.177-.03.352-.043.521-.066.89-.113 1.781-.203 2.669a20.14 20.14 0 0 1-.234 1.275c-.009.015-.019.031-.025.046-.105.228-.15.481-.203.725-.084.377-.179.82-.3 1.247a49 49 0 0 1-.199.578 3.599 3.599 0 0 1-.218.462c-.374.637-.575 1.406-.886 2.081-.125.273-.256.545-.385.817a22.422 22.422 0 0 1-1.524 2.388c-.103.078-.202.16-.298.255-.747.74-1.305 1.669-2.039 2.428l-.28.288a21.814 21.814 0 0 1-2.153 1.799c-.488.235-.915.591-1.352.918a22.027 22.027 0 0 1-2.032 1.123c-.012.006-.022.014-.036.021a21.678 21.678 0 0 1-6.098 1.903c-.399 0-.794.016-1.2.06-.57.061-1.128.14-1.704.129a3.304 3.304 0 0 0-.61.035c-.506-.073-1.026-.01-1.54-.07-.736-.085-1.473-.194-2.212-.235a21.752 21.752 0 0 1-5.278-1.659 10.91 10.91 0 0 0-.615-.354c-.91-.484-1.756-.912-2.579-1.541-.483-.369-1-.698-1.465-1.088-.204-.169-.36-.322-.58-.426a2.208 2.208 0 0 0-.663-.587 22.18 22.18 0 0 1-1.896-2.028 3.456 3.456 0 0 0-.36-.547c-.412-.534-.813-1.052-1.168-1.625-.158-.256-.318-.537-.513-.781a22.142 22.142 0 0 1-1.543-3.259c-.028-.111-.053-.222-.082-.333a45.469 45.469 0 0 0-.702-2.47c-.084-.256-.125-.56-.225-.827a21.562 21.562 0 0 1-.268-1.85c-.014-.733-.016-1.467-.036-2.2-.009-.396-.027-.792-.04-1.188.124-2.3.608-4.504 1.39-6.564M2.51 33.94c.277.664.434 1.446.92 1.998.174.347.357.688.546 1.025.2.553.55 1.059.88 1.536.405.587.84 1.358 1.432 1.864a24.475 24.475 0 0 0 2.187 2.366c.152.179.32.345.503.518.534.507 1.226 1.198 1.963 1.544.304.224.612.439.926.647.018.014.03.029.044.039.19.135.387.252.585.365.597.37 1.213.714 1.843 1.032.57.334 1.14.662 1.746.958.48.235 1.041.337 1.6.439.558.186 1.124.358 1.701.505.891.337 1.88.51 2.807.551h.128c1.028.131 2.071.207 3.131.207 2.081 0 4.101-.263 6.034-.751.2-.024.4-.055.6-.099.187-.041.366-.108.54-.188.713-.122 1.74-.392 2.34-.777a4.288 4.288 0 0 0 1.408-.746 24.704 24.704 0 0 0 3.942-2.441c1.401-.988 2.626-2.161 3.77-3.506.812-.956 1.62-1.925 2.271-3.003.096-.164.178-.337.254-.511.18-.297.356-.599.521-.905.315-.416.56-.908.806-1.321a.164.164 0 0 0 .005-.142 5.69 5.69 0 0 0 .152-.427c.62-1.055.973-2.185 1.16-3.43.131-.488.253-.983.354-1.484a3.956 3.956 0 0 0 .29-1.79c.13-1.027.206-2.07.206-3.132 0-1.326-.11-2.627-.312-3.896-.057-.547-.184-1.091-.279-1.657-.1-.588-.279-1.123-.49-1.666-.069-.222-.145-.441-.219-.66-.033-.169-.067-.334-.158-.469-.043-.12-.09-.237-.135-.354-.169-.561-.415-1.11-.619-1.648-.227-.597-.597-1.166-.892-1.732-.145-.28-.327-.584-.555-.824a24.89 24.89 0 0 0-3.862-4.794 8.778 8.778 0 0 0-.775-.769c-.352-.311-.708-.659-1.116-.894-.538-.755-1.616-1.281-2.329-1.696a21.036 21.036 0 0 0-1.973-1.024 24.613 24.613 0 0 0-2.968-1.239c-.34-.196-.71-.313-1.156-.404C31.215.939 30.195.6 29.133.409c-1.112-.204-2.26-.23-3.388-.214-2.058.029-4.26.216-6.26.769-1.342.335-2.638.78-3.882 1.325a23.02 23.02 0 0 0-1.9.912c-.15.078-.286.164-.416.253A24.802 24.802 0 0 0 7.4 8.118c-.193.121-.365.296-.516.448-.53.532-1.059 1.16-1.499 1.762a8.866 8.866 0 0 0-1.074 1.894c-.587.974-1.11 1.99-1.556 3.046a2.237 2.237 0 0 0-.407.863 2.09 2.09 0 0 0-.213.48.165.165 0 0 0-.004.062c-.263.437-.456 1.201-.505 1.367a12.508 12.508 0 0 0-.44 2.097 4.828 4.828 0 0 0-.035.63 23.994 23.994 0 0 0-.27 2.246c-.17.914-.226 1.941-.054 2.863.076 1.931.378 3.804.875 5.596.026.231.053.459.104.687.138.614.464 1.205.705 1.781"/></g></svg>