<?xml version="1.0" encoding="UTF-8"?>
<svg width="282px" height="50px" viewBox="0 0 282 50" version="1.1" xmlns="http://www.w3.org/2000/svg" xmlns:xlink="http://www.w3.org/1999/xlink">
    <!-- Generator: Sketch 46.2 (44496) - http://www.bohemiancoding.com/sketch -->
    <title>Logo (Horizontal)</title>
    <desc>Created with Sketch.</desc>
    <defs></defs>
    <g id="Symbols" stroke="none" stroke-width="1" fill="none" fill-rule="evenodd">
        <g id="Nav" transform="translate(-32.000000, -23.000000)" fill="#231F20">
            <g id="Group-3">
                <g id="Logo-(Horizontal)" transform="translate(32.722159, 23.191126)">
                    <path d="M14.3678943,19.0489074 C14.2878943,18.9169074 14.1948943,18.8049074 14.0938943,18.7029074 L14.4068943,18.7029074 C15.4908943,18.7029074 16.5928943,18.7139074 17.6958943,18.7299074 C18.0798943,18.7349074 18.4618943,18.7389074 18.8438943,18.7459074 L19.1108943,18.7499074 C19.7218943,18.7499074 20.3308943,18.7079074 20.9218943,18.6689074 C21.1718943,18.6499074 21.4208943,18.6339074 21.6718943,18.6209074 C22.1458943,18.5909074 22.6018943,18.6559074 23.0918943,18.7199074 C23.4868943,18.7739074 23.8978943,18.8289074 24.3148943,18.8319074 L24.7238943,18.8329074 C25.7058943,18.8329074 26.6888943,18.8119074 27.6748943,18.7889074 C28.5318943,18.7689074 29.3888943,18.7499074 30.2448943,18.7449074 C30.5068943,18.7429074 30.7688943,18.7379074 31.0308943,18.7319074 C31.8158943,18.7109074 32.6038943,18.6699074 33.3698943,18.6289074 C34.1008943,18.5909074 34.8528943,18.5519074 35.5998943,18.5299074 L35.1698943,19.2779074 C35.1048943,19.3569074 35.0408943,19.4349074 34.9878943,19.5079074 C34.6648943,19.9339074 34.4288943,20.4199074 34.1978943,20.8909074 C34.1248943,21.0429074 34.0508943,21.1949074 33.9778943,21.3349074 L33.5538943,22.0699074 C33.3428943,22.3999074 33.1118943,22.7189074 32.8848943,23.0369074 C32.3738943,23.7499074 31.8458943,24.4859074 31.5158943,25.3399074 C31.0038943,25.3369074 30.4768943,25.2939074 29.9688943,25.2529074 C29.4948943,25.2149074 29.0018943,25.1749074 28.5138943,25.1659074 L28.2608943,25.1629074 C27.7128943,25.1629074 27.1348943,25.1999074 26.4888943,25.2759074 C26.4048943,25.2849074 26.3228943,25.2899074 26.2388943,25.2899074 C25.9898943,25.2899074 25.7368943,25.2529074 25.4698943,25.2139074 C25.3118943,25.1899074 25.1528943,25.1669074 24.9978943,25.1509074 C24.7988943,25.1319074 24.5978943,25.1219074 24.4008943,25.1199074 C23.8048943,25.1159074 23.2188943,25.1799074 22.6488943,25.2449074 C22.2528943,25.2859074 21.8568943,25.3309074 21.4578943,25.3519074 C20.6238943,25.3959074 19.7808943,25.3619074 18.9428943,25.3269074 C18.5848943,25.3149074 18.2318943,25.2989074 17.8728943,25.2919074 C17.5728943,24.7739074 17.2428943,24.2639074 16.9278943,23.7699074 L15.3778943,21.1029074 C15.2998943,20.9349074 15.2248943,20.7689074 15.1498943,20.6019074 C14.9198943,20.0899074 14.6798943,19.5589074 14.3678943,19.0489074 M29.6028943,28.9089074 L28.8198943,30.2699074 C28.6258943,30.5839074 28.4288943,30.8949074 28.2288943,31.2069074 C27.9178943,31.6989074 27.6058943,32.1909074 27.3088943,32.6909074 C26.5478943,33.9859074 25.8008943,35.3159074 25.0778943,36.6029074 L24.7598943,37.1709074 C24.5558943,36.7249074 24.2898943,36.3169074 24.0328943,35.9169074 C23.9408943,35.7769074 23.8508943,35.6349074 23.7628943,35.4909074 C23.1838943,34.5589074 22.6448943,33.5599074 22.1578943,32.5189074 C21.7838943,31.7179074 21.2978943,30.9839074 20.8278943,30.2739074 C20.6918943,30.0659074 20.5538943,29.8559074 20.4168943,29.6459074 C20.2998943,29.4619074 20.1878943,29.2739074 20.0778943,29.0859074 C19.9298943,28.8339074 19.7788943,28.5789074 19.6138943,28.3369074 C19.5538943,28.2459074 19.4828943,28.1619074 19.4358943,28.1179074 C19.7048943,28.1249074 19.9708943,28.1069074 20.2368943,28.0889074 C21.0988943,28.0299074 21.8748943,27.9789074 22.6708943,27.9519074 C22.9918943,27.9409074 23.3128943,27.9349074 23.6358943,27.9329074 C24.6018943,27.9239074 25.5688943,27.9479074 26.5358943,27.9719074 C27.2408943,27.9869074 27.9468943,28.0039074 28.6958943,28.0079074 C29.0758943,28.0079074 29.4338943,27.9679074 29.7298943,27.9629074 C29.8318943,27.9719074 29.9608943,27.9399074 30.0618943,27.9629074 C29.9348943,28.2509074 29.7688943,28.5979074 29.6028943,28.9089074 M40.1308943,25.3839074 L40.1308943,25.3879074 L40.1048943,25.3879074 C40.1028943,25.3869074 40.1008943,25.3859074 40.0978943,25.3849074 C40.1088943,25.3849074 40.1198943,25.3839074 40.1308943,25.3839074 M8.96489429,26.4149074 C8.94089429,26.6399074 8.92589429,26.8779074 8.95289429,27.1099074 C8.94089429,27.1699074 8.93089429,27.2309074 8.92789429,27.2929074 C8.90589429,27.6059074 8.88989429,27.9149074 9.27189429,27.9439074 C9.45589429,27.9569074 9.63589429,27.9439074 9.80989429,27.9169074 C9.85889429,27.9209074 9.90389429,27.9299074 9.95889429,27.9299074 C10.0968943,27.9299074 10.2348943,27.9179074 10.3498943,27.9079074 L10.4598943,27.8999074 C10.4868943,27.8979074 10.5158943,27.8979074 10.5438943,27.8959074 C10.9018943,27.9179074 11.2588943,27.9449074 11.6178943,27.9519074 C12.0168943,27.9609074 12.4128943,27.9269074 12.8098943,27.8919074 C13.3168943,27.9509074 13.8358943,27.9189074 14.3558943,27.9229074 C14.9648943,27.9269074 15.5728943,27.9629074 16.1828943,27.9679074 C16.2798943,27.9679074 16.3778943,27.9639074 16.4768943,27.9599074 C17.2758943,29.3089074 18.0718943,30.6619074 18.8648943,32.0149074 C19.5318943,33.1499074 20.1998943,34.2859074 20.8708943,35.4209074 C21.6798943,36.7939074 22.2998943,37.9729074 22.8178943,39.1289074 L22.9278943,39.3739074 C23.2198943,40.0409074 23.5748943,40.8339074 24.1518943,41.3279074 C24.2818943,41.5539074 24.4088943,41.7849074 24.5688943,41.9909074 C24.6468943,42.0919074 24.7748943,42.0979074 24.8508943,41.9909074 C24.9408943,41.8659074 25.0268943,41.7369074 25.1128943,41.6049074 C25.1968943,41.5439074 25.2598943,41.4549074 25.2738943,41.3459074 C25.2738943,41.3439074 25.2758943,41.3419074 25.2758943,41.3399074 C25.6948943,40.6489074 26.0538943,39.8999074 26.3718943,39.1509074 L26.3878943,39.1309074 C26.6278943,38.7889074 26.8748943,38.4349074 27.0728943,38.0699074 C27.4148943,37.4449074 27.7638943,36.8279074 28.1138943,36.2109074 C28.4828943,35.5609074 28.8528943,34.9099074 29.2098943,34.2519074 C29.5478943,33.6279074 29.9308943,33.0119074 30.3018943,32.4159074 C30.6628943,31.8359074 31.0348943,31.2359074 31.3698943,30.6229074 C31.5948943,30.2159074 31.8568943,29.8209074 32.1128943,29.4399074 C32.4378943,28.9519074 32.7718943,28.4469074 33.0368943,27.9009074 C33.6648943,27.9159074 34.2918943,27.9459074 34.9218943,27.9459074 C35.1978943,27.9469074 35.8178943,27.9809074 36.2838943,27.8999074 C36.3968943,27.9009074 36.5088943,27.9039074 36.6198943,27.9039074 L36.8688943,27.9029074 C37.3068943,27.9009074 37.7468943,27.8619074 38.1698943,27.8269074 C38.3638943,27.8109074 38.5648943,27.7949074 38.7638943,27.7809074 C39.3328943,27.8179074 39.9198943,27.9079074 40.4658943,27.8249074 C40.5318943,27.8139074 40.5928943,27.7319074 40.5868943,27.6669074 C40.5158943,26.8519074 40.5338943,26.0309074 40.4418943,25.2179074 C40.4318943,25.1289074 40.3758943,25.0569074 40.2808943,25.0549074 C39.8418943,25.0489074 39.4068943,25.0959074 38.9738943,25.1549074 L38.7008943,25.1549074 C38.2488943,25.1549074 37.7958943,25.1759074 37.3408943,25.1999074 C36.9368943,25.2179074 36.5318943,25.2389074 36.1288943,25.2429074 C35.7478943,25.2459074 35.3598943,25.2809074 34.9838943,25.3149074 C34.8218943,25.3299074 34.6608943,25.3449074 34.4968943,25.3579074 C34.6538943,25.0569074 34.8308943,24.7619074 35.0018943,24.4749074 C35.2148943,24.1169074 35.4318943,23.7499074 35.6198943,23.3689074 C36.0858943,22.4229074 36.5688943,21.6289074 37.0988943,20.9439074 C37.5878943,20.3069074 37.8808943,19.6829074 38.1888943,19.0249074 L38.3698943,18.6419074 C38.5008943,18.3689074 38.6588943,18.1179074 38.8238943,17.8519074 C38.9978943,17.5749074 39.1748943,17.2919074 39.3208943,16.9839074 C39.3318943,16.9719074 39.3448943,16.9599074 39.3538943,16.9459074 C39.5158943,16.7499074 39.6378943,16.5269074 39.7888943,16.3209074 C39.8668943,16.2149074 39.7588943,16.0849074 39.6458943,16.0769074 C39.4008943,16.0579074 39.1188943,16.0379074 38.8548943,16.0769074 C38.3518943,16.0329074 37.8458943,16.0289074 37.3538943,16.0279074 C36.8508943,16.0269074 36.3308943,16.0259074 35.8268943,15.9759074 C35.2368943,15.9189074 34.6728943,15.9209074 34.1228943,15.9799074 C34.0448943,15.9879074 33.9708943,16.0029074 33.8938943,16.0159074 L33.8918943,16.0159074 C33.0208943,16.1039074 32.1458943,16.0719074 31.2698943,16.0969074 C31.1618943,16.0829074 31.0498943,16.0699074 30.9428943,16.0619074 C30.5518943,16.0349074 30.1528943,16.0439074 29.7588943,16.0479074 C29.5888943,16.0509074 29.4188943,16.0539074 29.2508943,16.0539074 C28.0908943,16.0539074 26.7798943,16.0539074 25.4828943,16.0239074 C24.8528943,16.0099074 24.2248943,16.0009074 23.5978943,15.9969074 C21.7168943,15.9849074 19.8508943,16.0179074 18.0798943,16.0999074 C17.5158943,16.1279074 16.9568943,16.1539074 16.4048943,16.1769074 L11.5438943,16.1769074 C11.1968943,16.1579074 10.8508943,16.1299074 10.4718943,16.0939074 C10.2898943,16.0679074 10.1068943,16.0559074 9.91389429,16.0829074 C9.83189429,16.0929074 9.77089429,16.2079074 9.80089429,16.2829074 C9.92189429,16.6059074 10.1438943,16.8649074 10.3088943,17.1619074 C10.4848943,17.6389074 10.8198943,18.0479074 11.1008943,18.4749074 C11.5648943,19.1799074 11.9388943,19.9399074 12.3498943,20.6759074 C12.7908943,21.4649074 13.2428943,22.2619074 13.7868943,22.9849074 C13.8048943,23.0089074 13.8218943,23.0309074 13.8398943,23.0549074 L15.0858943,25.2109074 C14.8238943,25.2269074 14.5648943,25.2549074 14.3108943,25.2809074 C13.9388943,25.3199074 13.5538943,25.3609074 13.1248943,25.3609074 L13.1188943,25.3609074 C12.7908943,25.3569074 12.4678943,25.3459074 12.1458943,25.3369074 C11.8788943,25.3269074 11.6138943,25.3199074 11.3468943,25.3149074 C10.9738943,25.2639074 10.5828943,25.2809074 10.2058943,25.2949074 C10.1818943,25.2809074 10.1558943,25.2749074 10.1208943,25.2799074 C9.88689429,25.3109074 9.13489429,25.1429074 8.99789429,25.4359074 C8.90589429,25.6319074 8.88089429,25.8409074 8.90989429,26.0579074 C8.92789429,26.1759074 8.94689429,26.2959074 8.96489429,26.4149074" id="Fill-63"></path>
                    <g id="Group" stroke-width="1" transform="translate(69.000000, 10.000000)">
                        <path d="M139.743245,28.4396691 C139.736875,28.4251087 139.733235,28.4069083 139.728685,28.3905279 C139.738695,28.396898 139.746885,28.4032682 139.758716,28.4087283 C139.745065,28.4169185 139.736875,28.4260187 139.743245,28.4396691 L139.743245,28.4396691 Z M133.36399,18.691512 C132.834357,18.6187102 132.314735,18.5486385 131.855174,18.5404483 C131.218158,18.5304381 130.585693,18.565929 129.951407,18.6378207 C129.390834,18.6987922 128.80933,18.5750292 128.231465,18.4985873 L128.585464,17.661367 C128.699217,17.498473 128.81297,17.334669 128.913982,17.1617648 C129.357163,16.4009863 129.586488,15.4855041 129.894986,14.6664841 C130.288115,13.6126785 130.803188,12.6416849 131.29096,11.6342904 C131.542126,11.1146678 131.71503,10.5722946 131.997137,10.0754225 L132.482179,11.2165902 C133.079153,13.8447342 134.830036,16.0679182 135.516193,18.691512 L133.36399,18.691512 Z M144.539062,28.3495769 C144.539062,28.231274 144.44988,28.0993208 144.343407,27.9746478 C143.932987,27.078276 143.511647,26.1837242 143.082117,25.2928125 L137.795798,13.6436193 C137.322587,12.4469402 136.766563,11.2821118 136.200529,10.1236537 L134.225781,5.76919778 C133.736189,4.55340821 133.256608,3.34944893 132.608672,2.20828118 L132.432128,1.81606164 C132.344765,1.55215523 132.174591,1.33556996 132.051738,1.0780337 C132.005327,0.980661329 131.840613,0.978841285 131.795112,1.0780337 C131.684999,1.3082693 131.584897,1.54032494 131.512095,1.78603091 C131.507545,1.80423136 131.503905,1.8224318 131.498445,1.84154226 C130.88327,2.58139026 130.769517,3.54237362 130.313596,4.4378354 C129.620159,5.79922851 128.959483,7.12422073 128.377069,8.53930514 C127.155819,11.5023372 125.54417,14.2833648 124.468524,17.2991782 L123.977112,18.3811945 C123.638584,18.9599685 123.414718,19.5751435 123.138072,20.2057888 C122.774973,21.033909 122.310861,21.8137979 121.965053,22.6528384 C121.557363,23.6484026 121.109632,24.5993757 120.6255,25.557629 C120.518118,25.7733042 120.428936,25.9926196 120.347944,26.2110249 C120.290612,26.2865567 120.235101,26.3620886 120.1805,26.4403505 C119.968465,26.7670484 119.79374,27.1228671 119.620836,27.4704955 C119.475233,27.7571525 119.284128,28.0074086 119.196766,28.3168161 C119.077553,28.396898 119.157635,28.6216735 119.322349,28.5798125 C119.325989,28.5798125 119.327809,28.5789025 119.329629,28.5789025 C119.36421,28.5880027 119.401521,28.5843626 119.432461,28.5661622 C119.804661,28.6107532 120.292432,28.5716223 120.646431,28.5470517 C120.913978,28.5288512 121.182434,28.5233911 121.449981,28.5224811 C121.574654,28.5233911 121.697507,28.5252112 121.82036,28.5270312 C122.091546,28.5343114 122.362733,28.5479617 122.632099,28.5716223 C122.786803,28.5852726 123.49116,28.684465 123.89885,28.5734423 C123.948901,28.5698022 123.994402,28.5534218 124.035353,28.518841 C124.131816,28.4687898 124.189147,28.395078 124.189147,28.2922455 C124.555886,27.6242892 124.739711,26.874431 125.101899,26.1973745 C125.5196,25.4165756 125.827187,24.5393142 126.144785,23.7157442 C126.260358,23.4099768 126.35591,23.1342401 126.406871,22.883984 L126.669867,22.2606188 L127.1722,22.2606188 C128.776569,22.4544535 130.401868,22.3279605 132.031718,22.2915596 C133.101904,22.269719 134.17755,22.3543511 135.246826,22.2797293 C135.305067,22.2769992 135.365129,22.269719 135.4261,22.2606188 L136.962218,22.2606188 C137.05777,22.3206803 137.146042,22.3943921 137.222484,22.4835742 L138.221688,24.8405316 C138.474675,25.8342757 138.667599,26.8844413 139.158101,27.7325819 C139.169021,27.8072037 139.183582,27.8827355 139.197232,27.9518972 C139.240003,28.1348117 139.296425,28.6871951 139.573071,28.683555 C139.583992,28.683555 139.593092,28.6799149 139.604012,28.6771849 C139.679544,28.7017554 139.771456,28.6944753 139.851538,28.6917452 C140.152755,28.6799149 140.453063,28.6653546 140.75246,28.6444241 C141.107369,28.6608045 141.494128,28.6344138 141.883617,28.5943728 C142.717198,28.6289537 143.586269,28.561612 144.388908,28.4988205 C144.46899,28.4924504 144.539062,28.436029 144.539062,28.3495769 L144.539062,28.3495769 Z" id="Fill-1"></path>
                        <path d="M17.0537888,24.2992504 C17.0728993,24.1454566 16.9109154,24.0153235 16.7689519,24.0153235 C13.7112776,24.0226037 10.5826215,23.9725524 7.53313733,24.2127983 L7.53131728,24.2127983 C7.37479348,24.1809475 7.21735965,24.1536468 7.05264564,24.1490967 C6.57488402,24.1372664 6.11259278,24.0808451 5.63665121,24.0963155 C5.58842004,23.8542496 5.53017862,23.6130937 5.49104767,23.3828581 C5.44827663,23.133512 5.42097596,22.885076 5.3936753,22.63664 C5.3936753,22.0496757 5.39276528,21.4636214 5.38366506,20.8784772 C5.35181428,18.9583305 5.2662722,17.0627544 5.3445341,15.1435177 C5.47830736,11.9639004 5.42552607,8.76335259 5.40277552,5.572815 C5.42370603,5.25248721 5.44008643,4.92851933 5.43826638,4.59272117 C5.4346263,4.1459003 5.47739734,3.69816941 5.48922762,3.25225857 C5.50196793,2.79542746 5.39094523,2.34132642 5.46192696,1.88540533 C5.47739734,1.78985301 5.42279601,1.69976082 5.31814346,1.69703075 C4.93502415,1.68793053 4.55281485,1.69612073 4.16969554,1.70977106 C4.04957261,1.70795102 3.92671963,1.71614121 3.80386664,1.72615146 C2.92478526,1.76710245 2.04479386,1.82989398 1.16298242,1.82170378 C1.13841182,1.81351358 1.1129312,1.80805345 1.0883606,1.79895323 C0.995538346,1.75982228 0.919096488,1.77802272 0.861765093,1.81897371 C0.768942836,1.86447482 0.694321021,1.95456701 0.68067069,2.07195987 C0.68067069,2.07559996 0.68067069,2.07742 0.678850645,2.07924004 C0.666110335,2.11109082 0.664290291,2.14476164 0.671570468,2.17570239 C0.586028388,3.10028487 0.71070142,4.00757694 0.744372239,4.93306944 C0.78350319,5.92681361 0.703421243,6.94330833 0.714341508,7.93978256 C0.742552194,10.2903697 0.692500977,12.6318567 0.760752637,14.9860839 C0.772582925,15.3510028 0.779863102,15.7177417 0.787143279,16.0863007 L0.787143279,20.0576372 C0.778043057,20.4234661 0.768942836,20.787475 0.755292504,21.1523939 C0.717981597,21.9932543 0.664290291,22.8059041 0.689770911,23.6394843 C0.639719694,23.953442 0.652460004,24.2755898 0.660650203,24.5922775 C0.684310778,25.6560934 0.66793038,26.7244594 0.692500977,27.7873652 C0.677030601,27.8683572 0.662470247,27.9493492 0.643359782,28.0303411 C0.62515934,28.1013228 0.636079605,28.1704845 0.664290291,28.231456 C0.641539738,28.2869674 0.617879163,28.3379286 0.613329052,28.354309 C0.584208344,28.4398511 0.662470247,28.5517838 0.757112548,28.5417736 C1.19301315,28.4971825 1.63164382,28.4999125 2.06936446,28.4844422 C2.8110325,28.5563339 3.57363104,28.4808021 4.3080189,28.4189206 C5.73948371,28.2969776 7.16821845,28.3224582 8.60332335,28.3734195 C9.92467548,28.4189206 11.2387474,28.3788796 12.5610096,28.3497589 C13.9833742,28.3206382 15.3920884,28.5972849 16.8153631,28.4880823 C16.9609666,28.478982 17.1120303,28.3670493 17.1002,28.2032453 C17.0019176,26.8946335 16.9009051,25.6087722 17.0537888,24.2992504" id="Fill-6"></path>
                        <path d="M35.7118816,28.4401241 C35.8047038,28.4328439 35.8811457,28.3891628 35.933017,28.3227312 L35.9639577,28.3227312 L35.9639577,28.2808702 C35.9821581,28.2444693 35.9967185,28.2044284 35.9985385,28.1561972 C36.0950009,23.6361173 36.1923733,19.0696262 36.0003586,14.5504563 C35.9885283,14.2446889 35.975788,13.9398315 35.9639577,13.6349741 L35.9639577,8.78819619 C35.975788,8.61620201 35.9848882,8.44420783 36.0003586,8.27130362 C36.0877207,7.28938974 36.0540499,6.30565582 36.0358495,5.32010186 C36.018559,4.20623477 36.2296842,3.07962737 36.139592,1.97759057 C36.1268517,1.8183367 36.018559,1.69639373 35.853845,1.6909336 C34.4242003,1.64452247 32.9981956,1.61540176 31.5694608,1.6909336 C31.327395,1.70640398 31.2327527,1.94755984 31.3374052,2.12410414 C31.3237549,2.17233531 31.3182947,2.22602661 31.3428653,2.29245823 C31.4156671,2.47901277 31.4466079,2.69650805 31.453888,2.92310357 L31.453888,3.28802244 C31.4384177,3.65385134 31.3929165,4.02605039 31.3838163,4.33454789 C31.3592457,5.23637982 31.4056569,6.13002155 31.453888,7.03094346 L31.453888,9.37789053 C31.4293174,9.89660315 31.3956466,10.4125857 31.3838163,10.9276582 C31.3647059,11.7293877 31.4156671,12.5283871 31.453888,13.3301166 L31.453888,15.8845488 C31.3801762,17.4670772 31.2363927,19.0541558 31.453888,20.6166638 L31.453888,26.256071 C31.2946342,26.8903564 31.1763313,27.5219118 31.1899816,28.2026083 C31.1936217,28.3591321 31.3182947,28.4883553 31.4757286,28.4874452 C32.1000037,28.4874452 32.7033484,28.3809726 33.3203434,28.3227312 L34.2358257,28.3227312 C34.7235975,28.3809726 35.2022692,28.4901753 35.7118816,28.4401241" id="Fill-9"></path>
                        <path d="M56.5819651,28.5036436 C56.8076506,28.517294 57.030606,28.5254842 57.2635717,28.4990935 C57.3372835,28.4890833 57.4173654,28.438122 57.4100852,28.3498499 C57.3500238,27.53356 57.4528563,26.5116052 57.2526514,25.6625545 L57.2526514,18.0010782 C57.3673142,17.6306992 57.3081628,17.0910561 57.3099828,16.716127 C57.3145329,15.8889169 57.4046251,15.0607967 57.484707,14.2372267 C57.5502286,13.5656304 57.4619565,12.9049543 57.4382959,12.2369981 C57.4337458,12.1177852 57.4737868,11.9530712 57.5110977,11.781077 C57.8023048,12.0577237 58.1062522,12.3243602 58.3628784,12.6255775 C59.1100066,13.4955587 59.9845378,14.2326766 60.7343961,15.1008377 C62.2004417,16.798939 63.8603221,18.2868252 65.3027072,20.0176873 C66.5512575,21.5146737 67.9399513,23.1854743 69.4960891,24.3675931 C69.5961916,24.4422149 69.6871938,24.5213868 69.7727359,24.5987387 C70.0020614,24.899956 70.2586877,25.1793328 70.5216841,25.4596196 C70.8210814,25.8754997 71.0886279,26.3114003 71.4544568,26.7372907 C71.6837823,27.0084773 71.9813596,27.2068621 72.2907671,27.3915966 C72.6292953,27.7192046 72.9641835,28.0495426 73.2271799,28.479073 C73.2544805,28.5245741 73.2845113,28.558245 73.315452,28.599196 C73.3491228,28.6583474 73.3791536,28.7074886 73.4037242,28.7384293 C73.5584279,28.9204338 73.9506475,29.1834302 74.2081837,29.1834302 C74.2946358,29.1834302 74.3465071,29.1142685 74.3546973,29.0341865 C74.4029285,28.6310467 74.3765378,28.2006063 74.3601574,27.7956464 C74.3474171,27.4871489 74.3656176,27.1522608 74.3192064,26.8428532 L74.3192064,23.8971116 C74.3920082,23.215505 74.4420594,22.5293483 74.425679,21.8277213 C74.3765378,19.472584 74.4984808,17.1128966 74.3956483,14.7586694 C74.2318443,10.8883453 74.7250763,6.97252004 74.5039409,3.09946585 C74.5703725,2.64718486 74.4529797,2.13393237 74.5357917,1.69348166 C74.5558122,1.59519927 74.4939307,1.51056722 74.3920082,1.50510708 C73.7832034,1.47052624 73.1862289,1.50510708 72.5810642,1.55879839 C71.8202857,1.62523 71.054957,1.52876766 70.2923585,1.5633485 C69.6016517,1.59337923 69.5479604,1.78721394 69.5961916,2.26133547 C69.5688909,2.38782855 69.5688909,2.52342185 69.5980116,2.67994565 C69.6853737,3.15406718 69.7581755,3.60452814 69.8082267,4.051349 L69.8082267,6.37827559 C69.7017541,7.45392175 69.7154045,8.47860666 69.7945764,9.56426306 C69.8027666,9.6807459 69.8045866,9.79722873 69.8082267,9.91280154 L69.8082267,10.2886407 C69.7909363,11.1477016 69.6626232,11.9903821 69.6507929,12.8558131 C69.6435127,13.5401497 69.735425,14.2199363 69.8045866,14.8988128 C69.7463452,15.3820345 69.6771835,15.8607062 69.6853737,16.3512081 C69.6917439,16.7443377 69.6416927,17.1447474 69.6034717,17.5351469 C69.5880014,17.6871206 69.615302,17.9273664 69.612572,18.1412216 C69.6016517,18.2067432 69.5880014,18.2722648 69.5761711,18.3368764 L67.8079981,16.4758811 C67.4421692,16.0044897 67.06269,15.5421984 66.65409,15.0917375 C64.9041175,13.1561204 63.0176416,11.3469964 61.2440085,9.43230986 C59.5149664,7.56585447 57.9215177,5.65116791 56.0459621,3.91757575 C55.2660731,3.1959282 54.7601008,1.98013863 53.7754568,1.52785764 C53.6516938,1.4441356 53.5242907,1.36314363 53.3977977,1.28488173 C53.207603,1.16475881 53.0274187,1.02097531 52.8208436,0.928153052 C52.8071933,0.915412742 52.7889929,0.908132565 52.7689724,0.902672432 C52.7653323,0.900852388 52.7635122,0.899942366 52.7598721,0.898122322 L52.7598721,0.899942366 C52.7489519,0.898122322 52.7416717,0.892662189 52.7316615,0.892662189 L52.7207412,0.892662189 C52.713461,0.892662189 52.7080009,0.895392255 52.7025408,0.895392255 C52.6260989,0.889022101 52.5714976,0.941803384 52.5551172,1.00732498 C52.5141662,1.03826573 52.4914156,1.08922697 52.5141662,1.15474856 C52.5769577,1.33220288 52.5287265,1.5469681 52.5360067,1.73352264 C52.5396468,1.79449412 52.547837,1.85455558 52.5569372,1.91643709 C52.5551172,1.96193819 52.5532971,2.00834932 52.5532971,2.05476045 C52.549657,2.09298138 52.5460169,2.12756222 52.5460169,2.15486288 C52.5305466,2.75365744 52.5805978,3.34881192 52.5623973,3.9485165 C52.5460169,4.49361976 52.547837,5.0423631 52.5769577,5.59019642 C52.5642174,5.78130107 52.5360067,5.97877587 52.5414668,6.15350012 C52.5514771,6.49111833 52.6051684,6.83146661 52.6206388,7.16908482 C52.6279189,7.2873877 52.6351991,7.40569057 52.6442993,7.52399345 C52.6333791,7.64593641 52.6224588,7.76605934 52.6106285,7.8880023 C52.3658326,10.1139164 52.6179087,12.3953419 52.6388392,14.6294462 C52.6797902,18.8237382 52.3813029,23.0771817 52.5660374,27.2705636 C52.549657,27.3087846 52.549657,27.3524656 52.5714976,27.3952367 C52.5833279,27.6646032 52.590608,27.9357898 52.6088085,28.2042463 C52.6088085,28.2260869 52.6142686,28.2497475 52.6206388,28.272498 C52.6142686,28.3225492 52.6088085,28.3707804 52.6088085,28.4117314 C52.6069884,28.5072837 52.7043608,28.5846356 52.7971831,28.5546049 C53.3495665,28.3817007 54.1995272,28.4454022 54.7655609,28.5091038 C54.9357351,28.5273042 55.1059092,28.5236641 55.2742633,28.5154739 C55.7483848,28.5637051 56.2043059,28.5864556 56.5819651,28.5036436" id="Fill-11"></path>
                        <path d="M105.861756,12.9151466 L105.861756,12.9169666 L105.859936,12.9169666 C105.859936,12.9160566 105.858116,12.9151466 105.858116,12.9151466 C105.858116,12.9151466 105.859936,12.9151466 105.861756,12.9151466 M102.833203,28.4100934 C103.209952,28.3891628 103.576691,28.354582 103.94252,28.3227312 L104.089943,28.3227312 C104.474883,28.3345615 104.862552,28.3582221 105.245671,28.3673223 C105.840826,28.3809726 106.481482,28.5092858 107.067536,28.4255637 C107.113947,28.4182836 107.162178,28.3673223 107.170368,28.3209112 C107.22406,28.0733852 107.23134,27.8131188 107.22952,27.5483024 C107.275931,27.0487002 107.283211,26.546368 107.25227,26.0458559 C107.25409,25.4052003 107.192209,24.7645447 107.175828,24.1229791 C107.174008,24.0428972 107.110307,23.9728255 107.026585,23.9737355 C106.856411,23.9746455 106.682596,23.9919359 106.508782,24.0155965 C106.304937,23.993756 106.058321,24.0292468 105.772574,24.0610976 C105.029996,24.1466397 104.264668,24.1894107 103.496609,24.2130713 L100.155918,24.2130713 C99.4470105,24.1939608 98.7399233,24.1575599 98.0328361,24.1038686 C97.2192763,24.0456272 96.2519228,24.1384495 95.4238026,23.9782856 L95.4238026,21.7578316 C95.4647536,21.3055506 95.5057046,20.8532696 95.5402855,20.3973485 C95.5830565,19.7621531 95.5020645,19.1242275 95.4438231,18.4944922 C95.3919519,17.9057079 95.4574735,17.417026 95.5593959,16.8873931 L96.7169441,16.8873931 C96.9681102,16.9338043 97.2156362,16.9747553 97.4704424,16.9893156 C98.3367835,17.043917 99.1994845,16.9492747 100.064916,16.9146938 C100.371593,16.9028635 100.683731,16.8955833 100.993138,16.8873931 L104.697838,16.8873931 C105.091878,16.8974034 105.480457,16.9083237 105.867217,16.921974 C105.911808,16.9256141 105.950939,16.9156038 105.984609,16.8983134 C106.081072,16.8955833 106.177534,16.8892132 106.276727,16.881023 C106.367729,16.8719228 106.449631,16.7918408 106.41869,16.6926484 C106.250336,16.1584654 106.330418,15.52236 106.326778,14.9435859 C106.356809,14.413953 106.335878,13.8916003 106.187544,13.46753 C106.164794,13.2327443 106.148413,12.9988686 106.155694,12.7768232 C106.157514,12.6921911 106.085622,12.6321297 106.00736,12.6284896 C105.556899,12.604829 105.133739,12.5274771 104.697838,12.5365773 C103.340085,12.5120067 101.940471,12.853265 100.572708,12.852355 C98.9009972,12.8487149 97.2283765,12.8077639 95.5539358,12.7904735 C95.5521158,12.6548802 95.5748663,12.5174669 95.5557559,12.3818736 C95.5493857,12.3518429 95.5448356,12.3227221 95.5384654,12.2936014 C95.5939768,11.8886416 95.5320953,11.4263503 95.5020645,11.1214929 C95.4774939,10.9003576 95.4511033,10.6692119 95.4238026,10.4335162 L95.4238026,6.05630976 C95.6758788,6.07997033 95.9989366,6.11455117 96.2774034,6.10181086 C97.1819654,6.34205671 98.3122129,6.2101035 99.058431,6.14913202 C99.551663,6.10909104 100.041255,6.04720954 100.533577,5.98987814 L104.400261,5.98987814 C105.050927,6.04538949 105.703413,6.09817078 106.358629,6.11182111 C106.362269,6.11273113 106.365909,6.11637122 106.373189,6.11637122 C106.618895,6.14276186 106.855501,6.09726075 107.101207,6.10454093 C107.209499,6.10818102 107.25773,6.00807859 107.2459,5.91616635 C107.160358,5.28825108 107.142158,4.6557857 107.076636,4.02423034 L107.076636,4.0224103 C107.115767,3.55465892 107.192209,2.99772538 107.147618,2.53088403 C107.170368,2.27516781 107.186749,2.02127163 107.175828,1.77192557 C107.172188,1.69002358 107.112127,1.62450199 107.026585,1.62359196 C106.899182,1.62177192 106.759038,1.63087214 106.613435,1.64270243 C106.566114,1.62723205 106.516062,1.61358172 106.461461,1.60357148 C105.381265,1.42702718 104.077203,1.74735497 102.984266,1.7937661 C101.607403,1.85291754 100.227809,1.82743692 98.8491259,1.84745741 C96.5267495,1.88749838 94.1288412,1.55261024 91.8073747,1.78193581 C91.737303,1.77829573 91.6681413,1.77374562 91.6007997,1.76555542 C91.3368933,1.72915453 91.0966474,1.71732424 90.8436613,1.79831621 C90.7817798,1.8183367 90.7317285,1.87384805 90.7335486,1.94118969 C90.7390087,2.11409389 90.7171682,2.27152772 90.7426488,2.44170186 L90.7426488,2.44261188 C90.7444689,2.45626221 90.7462889,2.46900252 90.7481089,2.48265285 C90.751749,2.50358336 90.7599392,2.52178381 90.7708595,2.53543414 C90.8491214,2.77203989 90.8655018,3.02047593 90.8882523,3.26891197 C90.8955325,3.34262377 90.9037227,3.41542554 90.9128229,3.48640726 L90.9128229,6.54590166 C90.8700519,7.13013587 90.8227308,7.7152801 90.78997,8.29951431 C90.6834974,10.4089456 90.7990702,12.5511377 90.7854198,14.6642091 C90.7617593,18.4080401 90.6762172,22.1564213 90.7016978,25.9029824 C90.6907775,25.929373 90.6871375,25.9621338 90.7016978,26.0003548 L90.7016978,26.0030848 C90.708978,26.7529431 90.7153481,27.5018913 90.7335486,28.2499295 C90.7335486,28.2872404 90.7426488,28.3245513 90.7562991,28.3600421 C90.7544791,28.4028132 90.7526591,28.4428542 90.751749,28.4856252 C90.749929,28.5829976 90.8491214,28.6567094 90.9401236,28.6294087 C92.2341751,28.2444693 93.6847504,28.5484167 95.0179328,28.3227312 L98.0546766,28.3227312 C98.3540739,28.3309214 98.6562012,28.3345615 98.9592386,28.3345615 C100.25238,28.3327415 101.541881,28.4901753 102.833203,28.4100934" id="Fill-13"></path>
                        <path d="M209.861179,12.9146915 L209.861179,12.9165116 L209.842978,12.9165116 C209.851168,12.9165116 209.855718,12.9146915 209.861179,12.9146915 M211.482838,26.2337754 C211.501038,26.049951 211.521969,25.8652165 211.525609,25.681392 C211.536529,25.1808798 211.380005,24.6694474 211.456447,24.1716653 C211.471008,24.077023 211.417316,23.9860208 211.312664,23.9842007 C211.1525,23.9805606 210.998706,23.9878408 210.849463,24.0005811 C210.787581,23.9842007 210.719329,23.9741905 210.647438,23.9805606 C209.999502,24.0242417 209.329726,24.119794 208.660859,24.2126163 L203.33723,24.2126163 C202.075029,24.0824831 200.820109,23.9669103 199.551538,24.0442622 L199.551538,16.8878482 L201.516276,16.8878482 C201.642769,16.9160588 201.770172,16.9433595 201.900305,16.9597399 C202.790307,17.0780428 203.640267,16.9925007 204.516619,16.8878482 L208.610808,16.8878482 C208.944786,16.9069586 209.281494,16.9178789 209.620023,16.9196989 C209.770176,16.9433595 209.92124,16.9533698 210.056833,16.9488196 C210.157846,16.9451796 210.218817,16.8569074 210.199707,16.7604451 C210.193337,16.7331444 210.191517,16.7031137 210.189697,16.6721729 C210.193337,16.6557925 210.191517,16.6375921 210.191517,16.6193916 C210.193337,16.5429498 210.198797,16.4646879 210.191517,16.3937061 C210.183326,16.3236344 210.170586,16.2553828 210.154206,16.1871311 C210.144195,15.5965268 210.236108,14.6701242 210.141465,13.9093457 C210.157846,13.5344166 210.107795,13.1512973 210.176046,12.7800083 C210.196977,12.6626154 210.107795,12.5743433 209.993132,12.5961838 C209.782007,12.6353147 209.572702,12.6025539 209.362486,12.6307646 C209.331546,12.6334947 209.300605,12.6398649 209.269664,12.645325 C209.165922,12.6316747 209.055809,12.6307646 208.928406,12.6516951 C206.809874,13.0066038 204.641292,12.5925437 202.53823,12.9165116 L199.551538,12.9165116 L199.551538,12.400529 C199.592489,11.9409679 199.581569,11.5005171 199.551538,11.040956 L199.551538,5.98942313 L208.67997,5.98942313 C209.193222,6.0867955 209.90395,6.24422933 210.469983,6.14503692 L210.568266,6.14503692 C210.773021,6.14230685 211.071508,6.0622249 211.260793,6.13593669 C211.326314,6.16232734 211.378185,6.13775674 211.408216,6.0949857 C211.441887,6.07223515 211.465548,6.03492424 211.461907,5.97941289 C211.440067,5.67091539 211.431877,5.35968782 211.428237,5.05028029 C211.463727,4.76908346 211.454627,4.46149598 211.430057,4.16755883 C211.441887,3.32305829 211.463727,2.47946778 211.387286,1.63496724 C211.380005,1.56125545 211.324494,1.47753341 211.238042,1.48663363 C210.606487,1.54851514 209.90759,1.43294233 209.274214,1.55215523 C209.249644,1.54760512 209.226893,1.54669509 209.197772,1.54942516 C207.85003,1.69138861 206.575089,1.85428257 205.260107,1.87703313 L204.786895,1.87703313 C204.443817,1.87521308 204.099828,1.86247277 203.74856,1.83426209 C202.10961,1.70594897 200.45792,1.83790218 198.81169,1.87703313 L197.636851,1.87703313 C197.300143,1.84063224 196.639467,1.7114091 196.062513,1.69775877 C195.757656,1.57763585 195.352696,1.63496724 195.057849,1.67227815 C194.975037,1.68319841 194.915885,1.73233961 194.908605,1.82152178 C194.894955,2.06995782 194.898595,2.32294397 194.904965,2.57593012 C194.891314,2.74883433 194.900415,2.9244686 194.924985,3.10192291 C194.928625,3.18473493 194.932265,3.2657269 194.934086,3.34762889 C194.939546,3.66522661 194.924985,3.96644394 194.986867,4.26948131 C194.921345,4.58798905 194.894955,4.92014713 194.874934,5.25958538 C194.794852,6.6956003 194.917705,8.15254573 195.042378,9.58583059 L195.042378,11.863616 C194.986867,12.6626154 194.910425,13.4643449 194.935906,14.2606143 C194.947736,14.7392859 194.997787,15.2134074 195.042378,15.688439 L195.042378,17.8579317 C194.978677,18.3748243 194.891314,18.894447 194.835803,19.4013293 C194.661079,21.0066083 194.975037,22.6018771 195.015988,24.2044261 C195.046018,25.4475163 194.665629,26.8125495 194.953196,28.0492696 C194.949556,28.2076134 194.949556,28.3668673 194.958656,28.5233911 C194.962296,28.557972 194.975037,28.5861826 194.992327,28.6080232 C195.010527,28.684465 195.096979,28.7408864 195.171601,28.7163158 C195.242583,28.6944753 195.315385,28.6799149 195.388187,28.6671746 C195.52105,28.685375 195.672113,28.6580744 195.806797,28.6134833 C196.33552,28.5870927 196.892453,28.6553443 197.401156,28.5461417 C197.664152,28.5370414 197.925328,28.5233911 198.183775,28.5006406 C199.095617,28.4205586 200.03385,28.4414891 200.947512,28.3231862 L204.128039,28.3231862 C205.139074,28.47698 206.147378,28.5452316 207.06013,28.3604971 C207.118372,28.3495769 207.175703,28.3368366 207.230305,28.3250063 C207.747197,28.3832477 208.26318,28.3677773 208.786442,28.3659573 C209.169562,28.3659573 209.549041,28.3887078 209.9267,28.4087283 C209.950361,28.4123684 209.973111,28.4178285 209.995862,28.4205586 C210.125995,28.4314789 210.239748,28.4342089 210.34713,28.4278388 C210.667458,28.4387591 210.987786,28.4396691 211.312664,28.4123684 C211.392746,28.4050882 211.461907,28.3495769 211.461907,28.2631248 C211.461907,27.8545248 211.461907,27.4441049 211.460087,27.0345949 C211.491938,26.7788787 211.496488,26.5076921 211.482838,26.2337754" id="Fill-3"></path>
                        <path d="M180.756396,14.00417 C180.191272,14.1115526 179.660729,13.8840471 179.122906,14.1133727 C178.838979,14.1288431 178.555962,14.0915322 178.270215,14.0988123 C178.255655,14.0988123 178.242915,14.1006324 178.229264,14.1006324 C177.971728,14.0724217 177.65413,14.0824319 177.261911,14.1370333 C176.83784,14.1943647 176.41559,14.2662564 175.99061,14.3244978 L173.964901,14.3244978 C173.606352,14.2444159 173.299674,14.3190377 172.948406,14.2744466 C172.503405,14.2152952 171.935551,14.1998248 171.509661,14.290827 C171.444139,14.3044773 171.377708,14.3144876 171.312186,14.3244978 L169.047141,14.3244978 C168.938848,14.3072074 168.829646,14.289007 168.724083,14.2680765 C168.665842,14.2553361 168.60851,14.2653464 168.557549,14.2817268 C168.542989,14.2771767 168.527518,14.2717165 168.513868,14.2680765 C168.416496,14.2371357 168.328224,14.3172176 168.324583,14.4100399 C168.286363,15.3246121 168.401935,16.306526 168.490207,17.2183682 C168.533889,17.6651891 168.360984,18.1192901 168.567559,18.5342602 C168.59486,18.5879515 168.678582,18.6243524 168.735003,18.6025119 C169.052601,18.4778388 169.382029,18.4787488 169.704177,18.4259676 C170.206509,18.3841065 170.711571,18.3395155 171.212994,18.2940144 L174.907684,18.2940144 L174.907684,20.0867579 C174.819411,20.3943454 174.734779,20.6746322 174.716579,20.871197 C174.622847,21.8467407 174.861272,22.6903313 174.693828,23.6067235 C173.212312,24.3902526 171.738076,24.7506214 169.568584,24.7506214 C169.172724,24.7506214 168.780505,24.7260508 168.397385,24.6805497 C166.427187,24.2191684 164.368717,23.2436247 162.757068,21.8776815 C161.162709,20.1850403 160.188076,17.8426434 160.188076,15.1207672 C160.188076,13.9395585 160.36007,12.812041 160.691318,11.7709757 C160.911543,11.2286025 161.158159,10.71353 161.422976,10.2357684 C161.960799,9.26932489 162.744328,8.48397579 163.549697,7.7441278 C164.243134,7.10347222 164.975702,6.68395202 165.756501,6.27717213 C166.882198,5.83763144 168.16897,5.59283549 169.604075,5.59283549 C170.076376,5.59283549 170.553228,5.62559628 171.027349,5.68474772 C172.886524,6.1115481 174.734779,7.10620229 176.118013,7.98892376 C176.465641,8.27922081 176.786879,8.27740077 177.049876,7.71409707 C177.258271,7.27000627 177.514897,6.85139609 177.753323,6.42186565 C178.05818,5.95320425 178.360307,5.44450188 178.514101,4.97948057 C178.631494,4.79474608 178.761627,4.61820179 178.920881,4.45075771 C178.990043,4.38068601 178.971842,4.27057333 178.88994,4.21779205 C178.766177,4.1377101 178.636954,4.05853818 178.503181,3.97936625 C178.45586,3.90019433 178.394888,3.82375247 178.312076,3.76005092 C176.370089,2.27307476 173.407967,1.7361617 171.04373,1.40127356 C166.792106,0.801568974 162.460401,2.39137763 159.308994,5.23337675 C156.093886,8.13088721 154.61146,12.3351894 155.094682,16.594093 C155.324007,18.6270825 156.040195,20.5863601 157.120391,22.3163122 C157.637284,23.1444323 158.206957,23.7941881 158.860353,24.3083506 C158.954996,24.4111831 159.048728,24.5103755 159.14883,24.6095679 C160.505673,26.5479151 163.049185,27.6763425 165.154976,28.4007201 C168.310933,29.4836465 171.8673,28.7055775 175.009606,28.0785723 C176.279087,27.8246761 177.581329,27.3460045 178.322997,26.4332523 C178.347567,26.420512 178.372138,26.4050416 178.394888,26.3904812 C178.538672,26.3367899 178.661525,26.2612581 178.766177,26.1702559 C178.923611,26.0728835 179.081955,25.9746011 179.238479,25.8708586 L179.238479,25.3321255 C179.333121,24.9708467 179.356782,24.5613368 179.345861,24.1545569 C179.29672,22.2462405 179.325841,20.3461143 179.344041,18.4405279 C179.986517,18.5196998 180.982081,18.5779413 181.037593,18.0928995 C181.103114,17.5141254 181.132235,16.923521 181.189566,16.3411069 C181.258728,15.6258295 181.085824,14.9323926 181.041233,14.2207553 C181.032132,14.0678716 180.905639,13.9768694 180.756396,14.00417" id="Fill-68"></path>
                    </g>
                    <path d="M4.24289429,16.9279074 C4.56689429,16.2929074 4.83589429,15.6189074 5.12889429,15.0099074 C5.30689429,14.6369074 5.48289429,14.2639074 5.67189429,13.8979074 C5.87889429,13.5359074 6.09389429,13.1819074 6.31689429,12.8349074 C6.42089429,12.7029074 6.52189429,12.5709074 6.58689429,12.4199074 C7.78489429,10.6509074 9.23689429,9.06790739 10.8888943,7.71890739 C11.2218943,7.47790739 11.5538943,7.23590739 11.8938943,7.02090739 C12.7808943,6.46590739 13.6058943,5.85490739 14.5338943,5.36490739 C16.3778943,4.39190739 18.4268943,3.64990739 20.4678943,3.22890739 C21.5338943,3.00990739 22.6488943,2.94090739 23.7278943,2.80890739 C23.7578943,2.80490739 23.7868943,2.80390739 23.8158943,2.80190739 C24.1208943,2.78890739 24.4248943,2.77790739 24.7308943,2.77790739 C31.7788943,2.77790739 38.0558943,6.12690739 42.0678943,11.3129074 C42.2168943,11.6519074 42.4788943,11.9559074 42.6578943,12.2769074 C42.9258943,12.7549074 43.2698943,13.1679074 43.6098943,13.5849074 C43.7418943,13.8099074 43.8748943,14.0339074 43.9998943,14.2639074 C44.2848943,15.1549074 44.7218943,16.0179074 45.1848943,16.8459074 C45.6138943,17.9599074 45.9588943,19.1139074 46.2028943,20.3059074 C46.2098943,20.4519074 46.2258943,20.5989074 46.2288943,20.7439074 C46.2438943,21.3279074 46.3658943,21.8969074 46.5298943,22.4539074 C46.6038943,23.1899074 46.6428943,23.9359074 46.6428943,24.6899074 C46.6428943,24.7239074 46.6408943,24.7579074 46.6408943,24.7919074 C46.6238943,24.9689074 46.6108943,25.1439074 46.5978943,25.3129074 C46.5318943,26.2029074 46.4848943,27.0939074 46.3948943,27.9819074 C46.3308943,28.4109074 46.2518943,28.8349074 46.1608943,29.2569074 C46.1518943,29.2719074 46.1418943,29.2879074 46.1358943,29.3029074 C46.0308943,29.5309074 45.9858943,29.7839074 45.9328943,30.0279074 C45.8488943,30.4049074 45.7538943,30.8479074 45.6318943,31.2749074 C45.5678943,31.4689074 45.5008943,31.6609074 45.4338943,31.8529074 C45.3678943,32.0189074 45.2958943,32.1759074 45.2158943,32.3149074 C44.8418943,32.9519074 44.6408943,33.7209074 44.3298943,34.3959074 C44.2048943,34.6689074 44.0738943,34.9409074 43.9448943,35.2129074 C43.4868943,36.0439074 42.9758943,36.8399074 42.4208943,37.6009074 C42.3178943,37.6789074 42.2188943,37.7609074 42.1228943,37.8559074 C41.3758943,38.5959074 40.8178943,39.5249074 40.0838943,40.2839074 C39.9918943,40.3789074 39.8978943,40.4749074 39.8028943,40.5719074 C39.1258943,41.2159074 38.4088943,41.8169074 37.6548943,42.3689074 C37.6548943,42.3699074 37.6528943,42.3709074 37.6508943,42.3709074 C37.1628943,42.6059074 36.7358943,42.9619074 36.2988943,43.2889074 C35.6718943,43.6779074 35.0268943,44.0399074 34.3598943,44.3659074 C34.3288943,44.3819074 34.2978943,44.3969074 34.2668943,44.4119074 C34.2548943,44.4179074 34.2448943,44.4259074 34.2308943,44.4329074 C32.3348943,45.3499074 30.2848943,45.9999074 28.1328943,46.3359074 C27.7338943,46.3359074 27.3388943,46.3519074 26.9328943,46.3959074 C26.3618943,46.4569074 25.8048943,46.5359074 25.2288943,46.5249074 C25.0168943,46.5209074 24.8138943,46.5269074 24.6178943,46.5599074 C24.1128943,46.4869074 23.5928943,46.5499074 23.0778943,46.4899074 C22.3428943,46.4049074 21.6058943,46.2959074 20.8668943,46.2549074 C19.0148943,45.9229074 17.2478943,45.3609074 15.5888943,44.5959074 C15.3878943,44.4729074 15.1848943,44.3529074 14.9738943,44.2419074 C14.0638943,43.7579074 13.2178943,43.3299074 12.3948943,42.7009074 C11.9118943,42.3319074 11.3948943,42.0029074 10.9298943,41.6129074 C10.7258943,41.4439074 10.5688943,41.2909074 10.3498943,41.1869074 C10.1798943,40.9659074 9.94689429,40.7409074 9.68689429,40.5999074 C9.01489429,39.9639074 8.37989429,39.2889074 7.79089429,38.5719074 C7.69389429,38.3829074 7.57289429,38.2069074 7.43089429,38.0249074 C7.01889429,37.4909074 6.61789429,36.9729074 6.26289429,36.3999074 C6.10489429,36.1439074 5.94489429,35.8629074 5.74989429,35.6189074 C5.15189429,34.5819074 4.63389429,33.4939074 4.20689429,32.3599074 C4.17889429,32.2489074 4.15389429,32.1379074 4.12489429,32.0269074 C3.90789429,31.2009074 3.68589429,30.3679074 3.42289429,29.5569074 C3.33889429,29.3009074 3.29789429,28.9969074 3.19789429,28.7299074 C3.08389429,28.1219074 2.99189429,27.5059074 2.92989429,26.8799074 C2.91589429,26.1469074 2.91389429,25.4129074 2.89389429,24.6799074 C2.88489429,24.2839074 2.86689429,23.8879074 2.85289429,23.4919074 C2.97789429,21.1919074 3.46189429,18.9879074 4.24289429,16.9279074 M1.78889429,33.7489074 C2.06589429,34.4129074 2.22289429,35.1949074 2.70789429,35.7469074 C2.88289429,36.0939074 3.06589429,36.4349074 3.25489429,36.7719074 C3.45389429,37.3249074 3.80489429,37.8309074 4.13489429,38.3079074 C4.53989429,38.8949074 4.97389429,39.6659074 5.56689429,40.1719074 C6.24289429,41.0079074 6.97389429,41.7979074 7.75389429,42.5379074 C7.90589429,42.7169074 8.07389429,42.8829074 8.25689429,43.0559074 C8.79089429,43.5629074 9.48289429,44.2539074 10.2198943,44.5999074 C10.5238943,44.8239074 10.8318943,45.0389074 11.1458943,45.2469074 C11.1638943,45.2609074 11.1758943,45.2759074 11.1898943,45.2859074 C11.3798943,45.4209074 11.5768943,45.5379074 11.7748943,45.6509074 C12.3718943,46.0209074 12.9878943,46.3649074 13.6178943,46.6829074 C14.1878943,47.0169074 14.7578943,47.3449074 15.3638943,47.6409074 C15.8438943,47.8759074 16.4048943,47.9779074 16.9628943,48.0799074 C17.5218943,48.2659074 18.0878943,48.4379074 18.6648943,48.5849074 C19.5558943,48.9219074 20.5438943,49.0949074 21.4718943,49.1359074 C21.5138943,49.1369074 21.5568943,49.1349074 21.5998943,49.1359074 C22.6278943,49.2669074 23.6708943,49.3429074 24.7308943,49.3429074 C26.8118943,49.3429074 28.8318943,49.0799074 30.7648943,48.5919074 C30.9648943,48.5679074 31.1638943,48.5369074 31.3638943,48.4929074 C31.5518943,48.4519074 31.7308943,48.3849074 31.9038943,48.3049074 C32.6178943,48.1829074 33.6448943,47.9129074 34.2448943,47.5279074 C34.6288943,47.4199074 35.2198943,47.1399074 35.6528943,46.7819074 C37.0468943,46.0909074 38.3638943,45.2729074 39.5948943,44.3409074 C40.9958943,43.3529074 42.2208943,42.1799074 43.3638943,40.8349074 C44.1768943,39.8789074 44.9838943,38.9099074 45.6358943,37.8319074 C45.7318943,37.6679074 45.8138943,37.4949074 45.8898943,37.3209074 C46.0698943,37.0239074 46.2458943,36.7219074 46.4108943,36.4159074 C46.7258943,35.9999074 46.9708943,35.5079074 47.2168943,35.0949074 C47.2398943,35.0549074 47.2418943,34.9969074 47.2218943,34.9529074 C47.2778943,34.8129074 47.3288943,34.6709074 47.3738943,34.5259074 C47.9938943,33.4709074 48.3468943,32.3409074 48.5338943,31.0959074 C48.6648943,30.6079074 48.7868943,30.1129074 48.8878943,29.6119074 C49.1268943,29.0269074 49.2158943,28.4529074 49.1778943,27.8219074 C49.3068943,26.7949074 49.3838943,25.7519074 49.3838943,24.6899074 C49.3838943,23.3639074 49.2738943,22.0629074 49.0718943,20.7939074 C49.0148943,20.2469074 48.8878943,19.7029074 48.7928943,19.1369074 C48.6928943,18.5489074 48.5138943,18.0139074 48.3018943,17.4709074 C48.2338943,17.2489074 48.1578943,17.0299074 48.0838943,16.8109074 C48.0508943,16.6419074 48.0168943,16.4769074 47.9258943,16.3419074 C47.8828943,16.2219074 47.8358943,16.1049074 47.7908943,15.9879074 C47.6218943,15.4269074 47.3758943,14.8779074 47.1718943,14.3399074 C46.9448943,13.7429074 46.5748943,13.1739074 46.2798943,12.6079074 C46.1348943,12.3279074 45.9528943,12.0239074 45.7248943,11.7839074 C44.6388943,10.0279074 43.3388943,8.41790739 41.8628943,6.98990739 C41.6218943,6.71290739 41.3518943,6.45690739 41.0878943,6.22090739 C40.7358943,5.90990739 40.3798943,5.56190739 39.9718943,5.32690739 C39.4338943,4.57190739 38.3558943,4.04590739 37.6428943,3.63090739 C37.0128943,3.26290739 36.3408943,2.90790739 35.6698943,2.60690739 C34.7158943,2.13190739 33.7228943,1.71890739 32.7018943,1.36790739 C32.3618943,1.17190739 31.9918943,1.05490739 31.5458943,0.963907387 C30.4928943,0.747907387 29.4728943,0.408907387 28.4108943,0.217907387 C27.2988943,0.0139073867 26.1508943,-0.0120926133 25.0228943,0.00390738669 C22.9648943,0.0329073867 20.7618943,0.219907387 18.7618943,0.772907387 C17.4208943,1.10790739 16.1248943,1.55290739 14.8808943,2.09790739 C14.2308943,2.36690739 13.6018943,2.68290739 12.9798943,3.00990739 C12.8298943,3.08790739 12.6948943,3.17390739 12.5648943,3.26290739 C10.3698943,4.51290739 8.38589429,6.08990739 6.67789429,7.92690739 C6.48489429,8.04790739 6.31289429,8.22290739 6.16189429,8.37490739 C5.63189429,8.90690739 5.10289429,9.53490739 4.66289429,10.1369074 C4.22489429,10.7329074 3.86489429,11.3579074 3.58889429,12.0309074 C3.00189429,13.0049074 2.47889429,14.0209074 2.03289429,15.0769074 C1.83989429,15.3349074 1.69589429,15.6209074 1.62589429,15.9399074 C1.53789429,16.0909074 1.46189429,16.2479074 1.41289429,16.4199074 C1.40689429,16.4419074 1.40689429,16.4619074 1.40889429,16.4819074 C1.14589429,16.9189074 0.952894291,17.6829074 0.903894291,17.8489074 C0.701894291,18.5339074 0.545894291,19.2359074 0.463894291,19.9459074 C0.437894291,20.1619074 0.426894291,20.3679074 0.428894291,20.5759074 C0.303894291,21.3139074 0.213894291,22.0619074 0.157894291,22.8219074 C-0.0121057087,23.7359074 -0.0671057087,24.7629074 0.104894291,25.6849074 C0.180894291,27.6159074 0.482894291,29.4889074 0.979894291,31.2809074 C1.00589429,31.5119074 1.03289429,31.7399074 1.08389429,31.9679074 C1.22189429,32.5819074 1.54789429,33.1729074 1.78889429,33.7489074" id="Fill-65"></path>
                </g>
            </g>
        </g>
    </g>
</svg>